<?xml version="1.0" encoding="utf-8"?>
<!-- Generator: Adobe Illustrator 21.0.0, SVG Export Plug-In . SVG Version: 6.00 Build 0)  -->
<svg version="1.1" id="Layer_1" xmlns="http://www.w3.org/2000/svg" xmlns:xlink="http://www.w3.org/1999/xlink" x="0px" y="0px"
	 width="268px" height="268px" viewBox="0 0 268 268" style="enable-background:new 0 0 268 268;" xml:space="preserve">
<style type="text/css">
	.st0{fill:#5EA22E;}
</style>
<g>
	<path class="st0" d="M217.7,35.5l-44.8,0.1c-10.4,2.7-12.6,11-5,18.5l10.9,10.7L134.6,109L89.7,64.1L101,52.6
		c7.5-6.4,5.3-13.6-4.9-16l-47.4,0.7c-10.8-0.6-13.1,4.8-13.2,13l0.1,44.8c2.7,10.4,11,12.6,18.5,5l10.7-10.9l44.8,44.7l-44.7,44.8
		l-10.8-11c-7.4-7.6-15.7-5.3-18.5,5l-0.1,44.8c0,8.2,2.3,13.7,13.2,13l47.4,0.7c10.3-2.4,12.5-9.6,4.9-16L89.7,204l44.9-44.9
		l44.1,44.1l-10.9,10.8c-7.6,7.4-5.3,15.7,5,18.5l44.8,0.1c8.2-0.1,13.6-2.4,13-13.2l0.7-47.4c-2.4-10.3-9.6-12.5-16-4.9L204,178.3
		L159.7,134l44.3-44.3l11.5,11.3c6.4,7.5,13.6,5.3,16-4.9l-0.7-47.4C231.3,37.8,225.9,35.5,217.7,35.5z"/>
</g>
</svg>
